<svg xmlns="http://www.w3.org/2000/svg" x="0px" y="0px" viewBox="3.33 3.33 13.32 13.32">
  <g>
    <path
      d="M10,7.83105A2.16895,2.16895,0,1,0,12.169,10,2.17162,2.17162,0,0,0,10,7.83105Zm0,3.3379A1.169,1.169,0,1,1,11.169,10,1.17031,1.17031,0,0,1,10,11.169Zm0-4.88233a1.458,1.458,0,0,0,1.2702-.75134,4.41236,4.41236,0,0,1,2.62921,1.89343.49992.49992,0,0,0,.84082-.541A5.39448,5.39448,0,0,0,11.435,4.54791,1.46214,1.46214,0,1,0,10,6.28662Zm0-1.92529a.46314.46314,0,0,1,.46289.4624l-.00195.00977-.00342.00879.00018.00708A.4607.4607,0,1,1,10,4.36133ZM16.63867,10a1.46267,1.46267,0,1,0-2.16778,1.27307,4.30446,4.30446,0,0,1-.57343,1.29773,4.23869,4.23869,0,0,1-1.32519,1.3252.5.5,0,1,0,.53515.84472,5.2119,5.2119,0,0,0,1.626-1.62158,5.27072,5.27072,0,0,0,.726-1.68536A1.46437,1.46437,0,0,0,16.63867,10Zm-1.45758.46143-.01507-.00586c-.007-.0011-.01325.00152-.02021.00067a.41716.41716,0,1,1,.03528.00519ZM10,13.71338a1.4583,1.4583,0,0,0-1.27307.75653,4.315,4.315,0,0,1-1.2992-.57391,4.23869,4.23869,0,0,1-1.32519-1.3252.5.5,0,0,0-.84473.53516,5.212,5.212,0,0,0,1.62158,1.626,5.28183,5.28183,0,0,0,1.68628.72632A1.46238,1.46238,0,1,0,10,13.71338Zm0,1.92529a.463.463,0,0,1-.46246-.46069l.00494-.01343c.00079-.00464-.001-.00885-.00037-.01349A.46078.46078,0,1,1,10,15.63867ZM6.28662,10a1.45821,1.45821,0,0,0-.75824-1.274,4.29545,4.29545,0,0,1,.57221-1.2973,4.46732,4.46732,0,0,1,1.332-1.331.50016.50016,0,0,0-.54492-.83887A5.45071,5.45071,0,0,0,5.2666,6.87744a5.27367,5.27367,0,0,0-.72687,1.68842A1.46226,1.46226,0,1,0,6.28662,10Zm-1.46289.4624a.46265.46265,0,0,1,0-.92529l.00049.00012L4.834,9.541l.01557.00134a.46032.46032,0,0,1-.02582.92Z"
      fill="#006CAC"></path>
  </g>
</svg>